# xmcd CD database file
#
# Track frame offsets:
#	150
#	2032
#	32092
#	48960
#	81502
#	94732
#	107547
#	127170
#	156222
#	166622
#	187295
#	218665
#	231912
#	241620
#	249462
#
# Disc length: 3949 seconds
#
# Revision: 0
# Processed by: cddbd v1.4PL0 Copyright (c) Steve Scherf et al.
# Submitted via: CDex 1.51
#
DISCID=be0f6b0f
DTITLE=Christian Muthspiel - Harmonices Mundi
DYEAR=2001
DGENRE=Jazz
TTITLE0=urknall
TTITLE1=part I
TTITLE2=part II
TTITLE3=part III
TTITLE4=part IV
TTITLE5=part V
TTITLE6=part VI
TTITLE7=part VII
TTITLE8=part VIII
TTITLE9=part IX
TTITLE10=part X
TTITLE11=part XI
TTITLE12=part XII
TTITLE13=part XIII
TTITLE14=part XIV
EXTD=YEAR: 2001
EXTT0=
EXTT1=
EXTT2=
EXTT3=
EXTT4=
EXTT5=
EXTT6=
EXTT7=
EXTT8=
EXTT9=
EXTT10=
EXTT11=
EXTT12=
EXTT13=
EXTT14=
PLAYORDER=
